<svg width="457" height="76" viewBox="0 0 457 76" fill="none" xmlns="http://www.w3.org/2000/svg">
<g clip-path="url(#clip0)">
<path d="M22.186 10.0925L16.2675 39.5661L20.8239 40.5913L15.9815 64.7061L33.0695 34.9451L26.9944 33.5782L37.3739 13.5097L22.186 10.0925Z" fill="white"/>
<path d="M43.3779 67.1906L51.9909 38.4708L47.5511 36.979L54.598 13.481L34.8425 41.3306L40.7622 43.3198L28.5785 62.2177L43.3779 67.1906Z" fill="white"/>
<path d="M66.7041 12.8318L57.6506 41.3993L62.0669 42.9675L54.6595 66.3409L74.8407 38.8354L68.9523 36.7445L81.4251 18.059L66.7041 12.8318Z" fill="white"/>
<path d="M122.616 36.632C122.616 31.628 119.088 27.2 114.48 27.2H99V56H105.804V41.564L108.612 45.848L116.748 45.812C116.928 45.704 117 45.596 117.108 45.56C120.888 43.832 122.616 41.348 122.616 36.632ZM116.136 36.884C116.136 38.144 114.984 39.836 113.688 39.836H105.768V33.896H113.4C114.948 33.896 116.136 35.3 116.136 36.884ZM150.341 41.564C150.341 33.32 145.229 27.2 137.561 27.2C129.749 27.2 124.312 33.212 124.312 41.636C124.312 50.132 129.641 56 137.417 56C145.193 56 150.341 49.916 150.341 41.564ZM144.005 41.636C144.005 46.1 141.305 49.664 137.417 49.664C133.673 49.664 131.045 46.208 131.045 41.744C131.045 36.992 133.564 33.644 137.525 33.644C141.377 33.644 144.005 37.208 144.005 41.636ZM184.036 27.2H174.424L168.412 45.2L162.436 27.2H152.824V56H160.024V41.6L164.812 56H172.012L176.836 41.6V56H184.036V27.2ZM212.954 41.564C212.954 33.32 207.842 27.2 200.174 27.2C192.362 27.2 186.926 33.212 186.926 41.636C186.926 50.132 192.254 56 200.03 56C207.806 56 212.954 49.916 212.954 41.564ZM206.618 41.636C206.618 46.1 203.918 49.664 200.03 49.664C196.286 49.664 193.658 46.208 193.658 41.744C193.658 36.992 196.178 33.644 200.138 33.644C203.99 33.644 206.618 37.208 206.618 41.636ZM239.378 41.744C239.378 33.248 234.266 27.2 226.634 27.2H215.438V56H227.75C228.218 56 229.226 55.82 230.846 55.424C235.886 54.272 239.378 48.368 239.378 41.744ZM232.322 40.016C232.322 46.172 230.558 49.232 227.03 49.232H222.602V33.968H227.93C228.614 33.968 229.334 34.328 230.162 35.084C232.178 36.92 232.322 39.836 232.322 40.016ZM267.833 41.564C267.833 33.32 262.721 27.2 255.053 27.2C247.241 27.2 241.805 33.212 241.805 41.636C241.805 50.132 247.133 56 254.909 56C262.685 56 267.833 49.916 267.833 41.564ZM261.497 41.636C261.497 46.1 258.797 49.664 254.909 49.664C251.165 49.664 248.537 46.208 248.537 41.744C248.537 36.992 251.057 33.644 255.017 33.644C258.869 33.644 261.497 37.208 261.497 41.636ZM288.064 45.812C288.244 45.704 288.316 45.596 288.424 45.56C292.204 43.832 293.932 41.348 293.932 36.632C293.932 31.628 290.404 27.2 285.796 27.2H270.316V56H277.12V41.564L286.588 56H294.328L288.064 45.812ZM287.452 36.884C287.452 38.144 286.3 39.836 285.004 39.836H277.084V33.896H284.716C286.264 33.896 287.452 35.3 287.452 36.884ZM322.958 41.564C322.958 33.32 317.846 27.2 310.178 27.2C302.366 27.2 296.93 33.212 296.93 41.636C296.93 50.132 302.258 56 310.034 56C317.81 56 322.958 49.916 322.958 41.564ZM316.622 41.636C316.622 46.1 313.922 49.664 310.034 49.664C306.29 49.664 303.662 46.208 303.662 41.744C303.662 36.992 306.182 33.644 310.142 33.644C313.994 33.644 316.622 37.208 316.622 41.636ZM331.157 49.268H324.281V56H331.157V49.268ZM358.487 41.744C358.487 33.248 353.375 27.2 345.743 27.2H334.547V56H346.859C347.327 56 348.335 55.82 349.955 55.424C354.995 54.272 358.487 48.368 358.487 41.744ZM351.431 40.016C351.431 46.172 349.667 49.232 346.139 49.232H341.711V33.968H347.039C347.723 33.968 348.443 34.328 349.271 35.084C351.287 36.92 351.431 39.836 351.431 40.016ZM361.022 27.2V33.932H379.058L382.262 27.2H361.022ZM379.094 38.144H361.022V44.876H379.094V38.144ZM380.786 49.268H360.914V56H380.786V49.268ZM402.883 27.2L396.907 45.2L390.895 27.2H383.695L393.307 56H400.507L410.083 27.2H402.883Z" fill="white"/>
</g>
<defs>
<clipPath id="clip0">
<rect width="457" height="76" fill="white"/>
</clipPath>
</defs>
</svg>
