<svg width="729" height="755" viewBox="0 0 729 755" fill="none" xmlns="http://www.w3.org/2000/svg">
<path d="M112.068 1.20288L50.4308 384.36L97.8821 397.687L47.4517 711.179L225.412 324.286L162.144 306.516L270.239 45.6261L112.068 1.20288Z" fill="url(#paint0_linear)"/>
<path d="M332.766 743.477L422.464 370.121L376.226 350.726L449.615 45.2528L243.876 407.298L305.526 433.157L178.641 678.83L332.766 743.477Z" fill="url(#paint1_linear)"/>
<path d="M575.692 36.8133L481.406 408.191L527.399 428.577L450.256 732.432L660.429 374.86L599.105 347.679L729 104.767L575.692 36.8133Z" fill="url(#paint2_linear)"/>
<defs>
<linearGradient id="paint0_linear" x1="361.5" y1="-571.5" x2="-109.92" y2="599.38" gradientUnits="userSpaceOnUse">
<stop stop-color="white"/>
<stop offset="1" stop-color="white" stop-opacity="0"/>
</linearGradient>
<linearGradient id="paint1_linear" x1="255.704" y1="711.154" x2="754.756" y2="-402.258" gradientUnits="userSpaceOnUse">
<stop stop-color="white" stop-opacity="0"/>
<stop offset="1" stop-color="white"/>
</linearGradient>
<linearGradient id="paint2_linear" x1="863" y1="-756" x2="243.21" y2="640.526" gradientUnits="userSpaceOnUse">
<stop stop-color="white"/>
<stop offset="1" stop-color="white" stop-opacity="0"/>
</linearGradient>
</defs>
</svg>
